<mxfile host="app.diagrams.net" modified="2020-09-03T17:48:51.909Z" agent="5.0 (Windows)" etag="TULDiUThmS26ciSkUsh3" version="13.6.6" type="github">
  <diagram id="sag8oOxH4Ze3E1KZWSOE" name="Page-1">
    <mxGraphModel dx="3671" dy="1538" grid="1" gridSize="10" guides="1" tooltips="1" connect="1" arrows="1" fold="1" page="1" pageScale="1" pageWidth="827" pageHeight="1169" math="0" shadow="0">
      <root>
        <mxCell id="0" />
        <mxCell id="1" parent="0" />
        <mxCell id="uLW2azy1-MF3wppk5bBp-3" value="" style="edgeStyle=orthogonalEdgeStyle;rounded=0;orthogonalLoop=1;jettySize=auto;html=1;" edge="1" parent="1" source="uLW2azy1-MF3wppk5bBp-1" target="uLW2azy1-MF3wppk5bBp-2">
          <mxGeometry relative="1" as="geometry" />
        </mxCell>
        <mxCell id="uLW2azy1-MF3wppk5bBp-1" value="Quando um novo item é criado" style="ellipse;whiteSpace=wrap;html=1;aspect=fixed;" vertex="1" parent="1">
          <mxGeometry x="360" y="20" width="80" height="80" as="geometry" />
        </mxCell>
        <mxCell id="uLW2azy1-MF3wppk5bBp-5" value="" style="edgeStyle=orthogonalEdgeStyle;rounded=0;orthogonalLoop=1;jettySize=auto;html=1;" edge="1" parent="1" source="uLW2azy1-MF3wppk5bBp-2" target="uLW2azy1-MF3wppk5bBp-4">
          <mxGeometry relative="1" as="geometry" />
        </mxCell>
        <mxCell id="uLW2azy1-MF3wppk5bBp-2" value="Registrar Anexo" style="shape=process;whiteSpace=wrap;html=1;backgroundOutline=1;" vertex="1" parent="1">
          <mxGeometry x="340" y="190" width="120" height="60" as="geometry" />
        </mxCell>
        <mxCell id="uLW2azy1-MF3wppk5bBp-6" style="edgeStyle=orthogonalEdgeStyle;rounded=0;orthogonalLoop=1;jettySize=auto;html=1;" edge="1" parent="1" source="uLW2azy1-MF3wppk5bBp-4" target="uLW2azy1-MF3wppk5bBp-8">
          <mxGeometry relative="1" as="geometry">
            <mxPoint x="120" y="470" as="targetPoint" />
          </mxGeometry>
        </mxCell>
        <mxCell id="uLW2azy1-MF3wppk5bBp-7" value="Preço C-MED" style="edgeLabel;html=1;align=center;verticalAlign=middle;resizable=0;points=[];" vertex="1" connectable="0" parent="uLW2azy1-MF3wppk5bBp-6">
          <mxGeometry x="0.0545" y="2" relative="1" as="geometry">
            <mxPoint as="offset" />
          </mxGeometry>
        </mxCell>
        <mxCell id="uLW2azy1-MF3wppk5bBp-43" style="edgeStyle=orthogonalEdgeStyle;rounded=0;orthogonalLoop=1;jettySize=auto;html=1;exitX=0.5;exitY=1;exitDx=0;exitDy=0;" edge="1" parent="1" source="uLW2azy1-MF3wppk5bBp-4" target="uLW2azy1-MF3wppk5bBp-45">
          <mxGeometry relative="1" as="geometry">
            <mxPoint x="740" y="480.0000000000002" as="targetPoint" />
          </mxGeometry>
        </mxCell>
        <mxCell id="uLW2azy1-MF3wppk5bBp-44" value="Preço Liberado" style="edgeLabel;html=1;align=center;verticalAlign=middle;resizable=0;points=[];" vertex="1" connectable="0" parent="uLW2azy1-MF3wppk5bBp-43">
          <mxGeometry x="-0.0517" y="-1" relative="1" as="geometry">
            <mxPoint as="offset" />
          </mxGeometry>
        </mxCell>
        <mxCell id="uLW2azy1-MF3wppk5bBp-56" style="edgeStyle=orthogonalEdgeStyle;rounded=0;orthogonalLoop=1;jettySize=auto;html=1;" edge="1" parent="1" source="uLW2azy1-MF3wppk5bBp-4" target="uLW2azy1-MF3wppk5bBp-60">
          <mxGeometry relative="1" as="geometry">
            <mxPoint x="1110" y="470.0000000000002" as="targetPoint" />
          </mxGeometry>
        </mxCell>
        <mxCell id="uLW2azy1-MF3wppk5bBp-57" value="Padrão" style="edgeLabel;html=1;align=center;verticalAlign=middle;resizable=0;points=[];" vertex="1" connectable="0" parent="uLW2azy1-MF3wppk5bBp-56">
          <mxGeometry x="-0.4877" relative="1" as="geometry">
            <mxPoint as="offset" />
          </mxGeometry>
        </mxCell>
        <mxCell id="uLW2azy1-MF3wppk5bBp-4" value="Opções" style="ellipse;whiteSpace=wrap;html=1;" vertex="1" parent="1">
          <mxGeometry x="340" y="320" width="120" height="80" as="geometry" />
        </mxCell>
        <mxCell id="uLW2azy1-MF3wppk5bBp-10" style="edgeStyle=orthogonalEdgeStyle;rounded=0;orthogonalLoop=1;jettySize=auto;html=1;" edge="1" parent="1" source="uLW2azy1-MF3wppk5bBp-8" target="uLW2azy1-MF3wppk5bBp-9">
          <mxGeometry relative="1" as="geometry" />
        </mxCell>
        <mxCell id="uLW2azy1-MF3wppk5bBp-8" value="Aprovação Gerente Preços" style="shape=process;whiteSpace=wrap;html=1;backgroundOutline=1;" vertex="1" parent="1">
          <mxGeometry x="208" y="480" width="120" height="60" as="geometry" />
        </mxCell>
        <mxCell id="uLW2azy1-MF3wppk5bBp-11" style="edgeStyle=orthogonalEdgeStyle;rounded=0;orthogonalLoop=1;jettySize=auto;html=1;" edge="1" parent="1" source="uLW2azy1-MF3wppk5bBp-9" target="uLW2azy1-MF3wppk5bBp-13">
          <mxGeometry relative="1" as="geometry">
            <mxPoint x="138" y="770" as="targetPoint" />
          </mxGeometry>
        </mxCell>
        <mxCell id="uLW2azy1-MF3wppk5bBp-12" value="Sim" style="edgeLabel;html=1;align=center;verticalAlign=middle;resizable=0;points=[];" vertex="1" connectable="0" parent="uLW2azy1-MF3wppk5bBp-11">
          <mxGeometry x="-0.4273" y="1" relative="1" as="geometry">
            <mxPoint as="offset" />
          </mxGeometry>
        </mxCell>
        <mxCell id="uLW2azy1-MF3wppk5bBp-39" style="edgeStyle=orthogonalEdgeStyle;rounded=0;orthogonalLoop=1;jettySize=auto;html=1;" edge="1" parent="1" source="uLW2azy1-MF3wppk5bBp-9" target="uLW2azy1-MF3wppk5bBp-38">
          <mxGeometry relative="1" as="geometry" />
        </mxCell>
        <mxCell id="uLW2azy1-MF3wppk5bBp-40" value="Não" style="edgeLabel;html=1;align=center;verticalAlign=middle;resizable=0;points=[];" vertex="1" connectable="0" parent="uLW2azy1-MF3wppk5bBp-39">
          <mxGeometry x="-0.1818" y="1" relative="1" as="geometry">
            <mxPoint as="offset" />
          </mxGeometry>
        </mxCell>
        <mxCell id="uLW2azy1-MF3wppk5bBp-9" value="Aprovado?" style="rhombus;whiteSpace=wrap;html=1;" vertex="1" parent="1">
          <mxGeometry x="228" y="600" width="80" height="80" as="geometry" />
        </mxCell>
        <mxCell id="uLW2azy1-MF3wppk5bBp-14" style="edgeStyle=orthogonalEdgeStyle;rounded=0;orthogonalLoop=1;jettySize=auto;html=1;entryX=0.5;entryY=0;entryDx=0;entryDy=0;exitX=0;exitY=0.5;exitDx=0;exitDy=0;" edge="1" parent="1" source="uLW2azy1-MF3wppk5bBp-13" target="uLW2azy1-MF3wppk5bBp-15">
          <mxGeometry relative="1" as="geometry">
            <mxPoint x="60" y="950" as="targetPoint" />
          </mxGeometry>
        </mxCell>
        <mxCell id="uLW2azy1-MF3wppk5bBp-33" value="Sim" style="edgeLabel;html=1;align=center;verticalAlign=middle;resizable=0;points=[];" vertex="1" connectable="0" parent="uLW2azy1-MF3wppk5bBp-14">
          <mxGeometry x="-0.2167" relative="1" as="geometry">
            <mxPoint as="offset" />
          </mxGeometry>
        </mxCell>
        <mxCell id="uLW2azy1-MF3wppk5bBp-34" style="edgeStyle=orthogonalEdgeStyle;rounded=0;orthogonalLoop=1;jettySize=auto;html=1;" edge="1" parent="1" source="uLW2azy1-MF3wppk5bBp-13">
          <mxGeometry relative="1" as="geometry">
            <mxPoint x="320" y="850" as="targetPoint" />
          </mxGeometry>
        </mxCell>
        <mxCell id="uLW2azy1-MF3wppk5bBp-35" value="Não" style="edgeLabel;html=1;align=center;verticalAlign=middle;resizable=0;points=[];" vertex="1" connectable="0" parent="uLW2azy1-MF3wppk5bBp-34">
          <mxGeometry x="-0.113" y="-3" relative="1" as="geometry">
            <mxPoint as="offset" />
          </mxGeometry>
        </mxCell>
        <mxCell id="uLW2azy1-MF3wppk5bBp-13" value="ZWPC?" style="rhombus;whiteSpace=wrap;html=1;" vertex="1" parent="1">
          <mxGeometry x="110" y="700" width="80" height="80" as="geometry" />
        </mxCell>
        <mxCell id="uLW2azy1-MF3wppk5bBp-23" style="edgeStyle=orthogonalEdgeStyle;rounded=0;orthogonalLoop=1;jettySize=auto;html=1;" edge="1" parent="1" source="uLW2azy1-MF3wppk5bBp-15" target="uLW2azy1-MF3wppk5bBp-22">
          <mxGeometry relative="1" as="geometry" />
        </mxCell>
        <mxCell id="uLW2azy1-MF3wppk5bBp-15" value="Aprovação Fiscal" style="shape=process;whiteSpace=wrap;html=1;backgroundOutline=1;" vertex="1" parent="1">
          <mxGeometry x="30" y="840" width="120" height="60" as="geometry" />
        </mxCell>
        <mxCell id="uLW2azy1-MF3wppk5bBp-24" style="edgeStyle=orthogonalEdgeStyle;rounded=0;orthogonalLoop=1;jettySize=auto;html=1;" edge="1" parent="1" source="uLW2azy1-MF3wppk5bBp-22">
          <mxGeometry relative="1" as="geometry">
            <mxPoint x="20" y="1050" as="targetPoint" />
          </mxGeometry>
        </mxCell>
        <mxCell id="uLW2azy1-MF3wppk5bBp-30" value="Sim" style="edgeLabel;html=1;align=center;verticalAlign=middle;resizable=0;points=[];" vertex="1" connectable="0" parent="uLW2azy1-MF3wppk5bBp-24">
          <mxGeometry x="-0.3556" y="8" relative="1" as="geometry">
            <mxPoint as="offset" />
          </mxGeometry>
        </mxCell>
        <mxCell id="uLW2azy1-MF3wppk5bBp-29" style="edgeStyle=orthogonalEdgeStyle;rounded=0;orthogonalLoop=1;jettySize=auto;html=1;" edge="1" parent="1" source="uLW2azy1-MF3wppk5bBp-22" target="uLW2azy1-MF3wppk5bBp-28">
          <mxGeometry relative="1" as="geometry" />
        </mxCell>
        <mxCell id="uLW2azy1-MF3wppk5bBp-31" value="Não" style="edgeLabel;html=1;align=center;verticalAlign=middle;resizable=0;points=[];" vertex="1" connectable="0" parent="uLW2azy1-MF3wppk5bBp-29">
          <mxGeometry x="-0.0714" y="2" relative="1" as="geometry">
            <mxPoint as="offset" />
          </mxGeometry>
        </mxCell>
        <mxCell id="uLW2azy1-MF3wppk5bBp-22" value="Aprovado?" style="rhombus;whiteSpace=wrap;html=1;" vertex="1" parent="1">
          <mxGeometry x="50" y="950" width="80" height="80" as="geometry" />
        </mxCell>
        <mxCell id="uLW2azy1-MF3wppk5bBp-27" style="edgeStyle=orthogonalEdgeStyle;rounded=0;orthogonalLoop=1;jettySize=auto;html=1;entryX=0;entryY=0.5;entryDx=0;entryDy=0;exitX=0.5;exitY=1;exitDx=0;exitDy=0;" edge="1" parent="1" source="uLW2azy1-MF3wppk5bBp-25" target="uLW2azy1-MF3wppk5bBp-26">
          <mxGeometry relative="1" as="geometry" />
        </mxCell>
        <mxCell id="uLW2azy1-MF3wppk5bBp-25" value="Atualiza item" style="rounded=0;whiteSpace=wrap;html=1;" vertex="1" parent="1">
          <mxGeometry x="-40" y="1050" width="120" height="60" as="geometry" />
        </mxCell>
        <mxCell id="uLW2azy1-MF3wppk5bBp-26" value="Fim" style="ellipse;whiteSpace=wrap;html=1;aspect=fixed;" vertex="1" parent="1">
          <mxGeometry x="340" y="1210" width="80" height="80" as="geometry" />
        </mxCell>
        <mxCell id="uLW2azy1-MF3wppk5bBp-32" style="edgeStyle=orthogonalEdgeStyle;rounded=0;orthogonalLoop=1;jettySize=auto;html=1;" edge="1" parent="1" source="uLW2azy1-MF3wppk5bBp-28" target="uLW2azy1-MF3wppk5bBp-26">
          <mxGeometry relative="1" as="geometry" />
        </mxCell>
        <mxCell id="uLW2azy1-MF3wppk5bBp-28" value="Atualiza item" style="rounded=0;whiteSpace=wrap;html=1;" vertex="1" parent="1">
          <mxGeometry x="150" y="1050" width="120" height="60" as="geometry" />
        </mxCell>
        <mxCell id="uLW2azy1-MF3wppk5bBp-37" style="edgeStyle=orthogonalEdgeStyle;rounded=0;orthogonalLoop=1;jettySize=auto;html=1;" edge="1" parent="1" source="uLW2azy1-MF3wppk5bBp-36" target="uLW2azy1-MF3wppk5bBp-26">
          <mxGeometry relative="1" as="geometry" />
        </mxCell>
        <mxCell id="uLW2azy1-MF3wppk5bBp-36" value="Atualiza item" style="rounded=0;whiteSpace=wrap;html=1;" vertex="1" parent="1">
          <mxGeometry x="260" y="840" width="120" height="60" as="geometry" />
        </mxCell>
        <mxCell id="uLW2azy1-MF3wppk5bBp-42" style="edgeStyle=orthogonalEdgeStyle;rounded=0;orthogonalLoop=1;jettySize=auto;html=1;entryX=1;entryY=0.5;entryDx=0;entryDy=0;" edge="1" parent="1" source="uLW2azy1-MF3wppk5bBp-38" target="uLW2azy1-MF3wppk5bBp-26">
          <mxGeometry relative="1" as="geometry" />
        </mxCell>
        <mxCell id="uLW2azy1-MF3wppk5bBp-38" value="Atualiza item" style="rounded=0;whiteSpace=wrap;html=1;" vertex="1" parent="1">
          <mxGeometry x="440" y="730" width="120" height="60" as="geometry" />
        </mxCell>
        <mxCell id="uLW2azy1-MF3wppk5bBp-46" style="edgeStyle=orthogonalEdgeStyle;rounded=0;orthogonalLoop=1;jettySize=auto;html=1;" edge="1" parent="1" source="uLW2azy1-MF3wppk5bBp-45" target="uLW2azy1-MF3wppk5bBp-48">
          <mxGeometry relative="1" as="geometry">
            <mxPoint x="620" y="580" as="targetPoint" />
          </mxGeometry>
        </mxCell>
        <mxCell id="uLW2azy1-MF3wppk5bBp-47" value="Sim" style="edgeLabel;html=1;align=center;verticalAlign=middle;resizable=0;points=[];" vertex="1" connectable="0" parent="uLW2azy1-MF3wppk5bBp-46">
          <mxGeometry x="-0.2256" relative="1" as="geometry">
            <mxPoint as="offset" />
          </mxGeometry>
        </mxCell>
        <mxCell id="uLW2azy1-MF3wppk5bBp-50" style="edgeStyle=orthogonalEdgeStyle;rounded=0;orthogonalLoop=1;jettySize=auto;html=1;exitX=1;exitY=0.5;exitDx=0;exitDy=0;" edge="1" parent="1" source="uLW2azy1-MF3wppk5bBp-45" target="uLW2azy1-MF3wppk5bBp-49">
          <mxGeometry relative="1" as="geometry" />
        </mxCell>
        <mxCell id="uLW2azy1-MF3wppk5bBp-51" value="Não" style="edgeLabel;html=1;align=center;verticalAlign=middle;resizable=0;points=[];" vertex="1" connectable="0" parent="uLW2azy1-MF3wppk5bBp-50">
          <mxGeometry x="-0.6535" y="1" relative="1" as="geometry">
            <mxPoint as="offset" />
          </mxGeometry>
        </mxCell>
        <mxCell id="uLW2azy1-MF3wppk5bBp-45" value="Radiologia?" style="rhombus;whiteSpace=wrap;html=1;" vertex="1" parent="1">
          <mxGeometry x="700" y="480" width="80" height="80" as="geometry" />
        </mxCell>
        <mxCell id="uLW2azy1-MF3wppk5bBp-53" style="edgeStyle=orthogonalEdgeStyle;rounded=0;orthogonalLoop=1;jettySize=auto;html=1;" edge="1" parent="1" source="uLW2azy1-MF3wppk5bBp-48" target="uLW2azy1-MF3wppk5bBp-52">
          <mxGeometry relative="1" as="geometry" />
        </mxCell>
        <mxCell id="uLW2azy1-MF3wppk5bBp-48" value="Aprovação Radiologia" style="shape=process;whiteSpace=wrap;html=1;backgroundOutline=1;" vertex="1" parent="1">
          <mxGeometry x="560" y="585" width="120" height="60" as="geometry" />
        </mxCell>
        <mxCell id="uLW2azy1-MF3wppk5bBp-54" style="edgeStyle=orthogonalEdgeStyle;rounded=0;orthogonalLoop=1;jettySize=auto;html=1;" edge="1" parent="1" source="uLW2azy1-MF3wppk5bBp-49" target="uLW2azy1-MF3wppk5bBp-52">
          <mxGeometry relative="1" as="geometry" />
        </mxCell>
        <mxCell id="uLW2azy1-MF3wppk5bBp-49" value="Aprovação CH" style="shape=process;whiteSpace=wrap;html=1;backgroundOutline=1;" vertex="1" parent="1">
          <mxGeometry x="780" y="585" width="120" height="60" as="geometry" />
        </mxCell>
        <mxCell id="uLW2azy1-MF3wppk5bBp-55" style="edgeStyle=orthogonalEdgeStyle;rounded=0;orthogonalLoop=1;jettySize=auto;html=1;entryX=1;entryY=0.5;entryDx=0;entryDy=0;" edge="1" parent="1" source="uLW2azy1-MF3wppk5bBp-52" target="uLW2azy1-MF3wppk5bBp-26">
          <mxGeometry relative="1" as="geometry" />
        </mxCell>
        <mxCell id="uLW2azy1-MF3wppk5bBp-52" value="Atualiza Item" style="rounded=0;whiteSpace=wrap;html=1;" vertex="1" parent="1">
          <mxGeometry x="690" y="710" width="120" height="60" as="geometry" />
        </mxCell>
        <mxCell id="uLW2azy1-MF3wppk5bBp-61" style="edgeStyle=orthogonalEdgeStyle;rounded=0;orthogonalLoop=1;jettySize=auto;html=1;entryX=1;entryY=0.5;entryDx=0;entryDy=0;" edge="1" parent="1" source="uLW2azy1-MF3wppk5bBp-60" target="uLW2azy1-MF3wppk5bBp-26">
          <mxGeometry relative="1" as="geometry">
            <Array as="points">
              <mxPoint x="1110" y="1250" />
            </Array>
          </mxGeometry>
        </mxCell>
        <mxCell id="uLW2azy1-MF3wppk5bBp-60" value="Atualiza item" style="rounded=0;whiteSpace=wrap;html=1;" vertex="1" parent="1">
          <mxGeometry x="1050" y="480" width="120" height="60" as="geometry" />
        </mxCell>
      </root>
    </mxGraphModel>
  </diagram>
</mxfile>
